<svg xmlns="http://www.w3.org/2000/svg" viewBox="0 0 44 21.25" x="0px" y="0px"><title>Right Arrow Key Pressed</title><g data-name="Layer 2"><g data-name="Layer 1"><path d="M32,17H42a2,2,0,0,0,2-2V11a2,2,0,0,0-2-2H32a2,2,0,0,0-2,2v4A2,2,0,0,0,32,17Zm3-5.5L39,13l-4,1.5ZM2,17H12a2,2,0,0,0,2-2V11a2,2,0,0,0-2-2H2a2,2,0,0,0-2,2v4A2,2,0,0,0,2,17Zm0-6H12v4H2Zm7,3.5v-3L5,13ZM27,9H17a2,2,0,0,0-2,2v4a2,2,0,0,0,2,2H27a2,2,0,0,0,2-2V11A2,2,0,0,0,27,9Zm0,6H17V11H27Zm-3.5-3.5h-3l1.5,3ZM27,0H17a2,2,0,0,0-2,2V6a2,2,0,0,0,2,2H27a2,2,0,0,0,2-2V2A2,2,0,0,0,27,0Zm0,6H17V2H27Zm-6.5-.5h3L22,2.5Z"/></g></g><text x="0" y="32" fill="#000000" font-size="5px" font-weight="bold" font-family="'Helvetica Neue', Helvetica, Arial-Unicode, Arial, Sans-serif">Created by Thomas Radwanski</text><text x="0" y="37" fill="#000000" font-size="5px" font-weight="bold" font-family="'Helvetica Neue', Helvetica, Arial-Unicode, Arial, Sans-serif">from the Noun Project</text></svg>